#define quit_width 96
#define quit_height 32
static unsigned char quit_bits[] = {
   0x00, 0x00, 0x00, 0x00, 0x00, 0x00, 0x00, 0x00, 0x00, 0x00, 0x00, 0x00,
   0xe0, 0xff, 0xff, 0xff, 0xff, 0xff, 0xff, 0xff, 0xff, 0xff, 0xff, 0x07,
   0x00, 0x00, 0x00, 0x00, 0x00, 0x00, 0x00, 0x00, 0x00, 0x00, 0x00, 0x00,
   0x00, 0x00, 0x00, 0x00, 0x00, 0x00, 0x00, 0x00, 0x00, 0x00, 0x00, 0x00,
   0x04, 0x00, 0x00, 0x00, 0x00, 0x00, 0x00, 0x00, 0x00, 0x00, 0x00, 0x20,
   0x04, 0xe0, 0x03, 0x80, 0x83, 0x0f, 0xb0, 0xff, 0x03, 0xfe, 0xed, 0x20,
   0x04, 0x18, 0x06, 0x40, 0x82, 0x0c, 0x10, 0x00, 0x03, 0x02, 0xc0, 0x20,
   0x04, 0x04, 0x08, 0x00, 0x82, 0x08, 0x00, 0x00, 0x02, 0x02, 0x80, 0x20,
   0x04, 0x06, 0x18, 0x00, 0x82, 0x08, 0x00, 0x00, 0x02, 0x02, 0x80, 0x20,
   0x04, 0xe3, 0x31, 0x00, 0x82, 0x08, 0xf0, 0xf1, 0x03, 0x02, 0x80, 0x20,
   0x04, 0x21, 0x23, 0x00, 0x82, 0x08, 0x00, 0x31, 0x00, 0x3e, 0xfc, 0x20,
   0x04, 0x11, 0x22, 0x00, 0x82, 0x08, 0x00, 0x11, 0x00, 0x20, 0x04, 0x20,
   0x04, 0x11, 0x22, 0x00, 0x82, 0x08, 0x00, 0x11, 0x00, 0x20, 0x04, 0x20,
   0x04, 0x11, 0x22, 0x00, 0x82, 0x08, 0x00, 0x11, 0x00, 0x20, 0x04, 0x20,
   0x04, 0x11, 0x22, 0x00, 0x82, 0x08, 0x00, 0x11, 0x00, 0x20, 0x04, 0x20,
   0x04, 0x11, 0x22, 0x00, 0x82, 0x08, 0x00, 0x11, 0x00, 0x20, 0x04, 0x20,
   0x04, 0x11, 0x22, 0x20, 0x82, 0x08, 0x00, 0x11, 0x00, 0x20, 0x04, 0x20,
   0x04, 0x11, 0x23, 0x20, 0x82, 0x08, 0x00, 0x11, 0x00, 0x20, 0x04, 0x20,
   0x04, 0x91, 0x20, 0x20, 0x82, 0x08, 0x00, 0x11, 0x00, 0x20, 0x04, 0x20,
   0x04, 0x91, 0x20, 0x20, 0x86, 0x08, 0x00, 0x11, 0x00, 0x20, 0x04, 0x20,
   0x04, 0xe1, 0x20, 0x20, 0xfe, 0x08, 0xf0, 0xf1, 0x03, 0x20, 0x04, 0x20,
   0x04, 0x01, 0x20, 0x60, 0x00, 0x08, 0x18, 0x00, 0x02, 0x20, 0x04, 0x20,
   0x04, 0x02, 0x00, 0xc0, 0x00, 0x04, 0x08, 0x00, 0x02, 0x20, 0x04, 0x20,
   0x04, 0x04, 0x04, 0x80, 0x01, 0x02, 0x00, 0x00, 0x02, 0x20, 0x04, 0x20,
   0x04, 0xf8, 0x1f, 0x00, 0xff, 0x01, 0xf8, 0xff, 0x03, 0xe0, 0x07, 0x20,
   0x04, 0x00, 0x00, 0x00, 0x00, 0x00, 0x00, 0x00, 0x00, 0x00, 0x00, 0x20,
   0x04, 0x00, 0x00, 0x00, 0x00, 0x00, 0x00, 0x00, 0x00, 0x00, 0x00, 0x20,
   0x00, 0x00, 0x00, 0x00, 0x00, 0x00, 0x00, 0x00, 0x00, 0x00, 0x00, 0x00,
   0x08, 0x00, 0x00, 0x00, 0x00, 0x00, 0x00, 0x00, 0x00, 0x00, 0x00, 0x10,
   0xe0, 0xff, 0xff, 0xff, 0xff, 0xff, 0xff, 0xff, 0xff, 0xff, 0xff, 0x07,
   0x00, 0x00, 0x00, 0x00, 0x00, 0x00, 0x00, 0x00, 0x00, 0x00, 0x00, 0x00,
   0x00, 0x00, 0x00, 0x00, 0x00, 0x00, 0x00, 0x00, 0x00, 0x00, 0x00, 0x00 };
